<svg width="164" height="112" viewBox="0 0 164 112" fill="none" xmlns="http://www.w3.org/2000/svg">
<g opacity="0.7">
<path d="M98.3712 18.3807C99.0473 18.174 99.6145 18.3697 100.159 18.7472C103.172 20.8364 106.761 25.8066 108.211 29.165C117.325 50.2722 96.7943 72.8175 75.1399 66.4981C72.4226 65.7052 70.1177 65.2967 69.8181 62.0771C69.6174 59.9261 69.5295 54.3836 69.8041 52.3274C69.8621 51.895 70.2306 51.2948 70.631 51.1261C72.101 50.5069 74.4438 52.7798 75.8269 53.4299C83.1499 56.8712 92.2406 54.3657 96.0354 47.0986C99.4198 40.6174 96.7364 27.2366 97.6172 19.656C97.6711 19.1936 97.8759 18.5315 98.3722 18.3807H98.3712Z" fill="black"/>
<path d="M71.7231 27.9644C68.5115 30.458 66.6989 33.9592 66.4912 37.9628C66.1177 45.175 66.5012 52.4291 66.3684 59.6502C66.1896 60.6059 65.7902 61.5726 64.6477 61.3729C64.2612 61.305 61.5839 58.9062 61.1575 58.4588C49.2028 45.901 51.8901 26.0311 66.2975 16.7537C73.1481 12.3427 84.3029 10.2186 91.8746 13.8377C93.4005 14.5677 93.8339 15.5653 93.9747 17.2181C94.2494 20.4327 93.792 24.0717 93.9238 27.3303C92.8113 29.8618 90.85 27.4381 89.4349 26.6292C83.7007 23.3547 76.903 23.9429 71.7231 27.9644Z" fill="black"/>
<path d="M84.7878 32.8115C94.9819 31.6511 96.363 46.3001 86.9469 47.5544C77.334 48.8337 75.5863 33.8601 84.7878 32.8115Z" fill="black"/>
<path d="M103.454 89.6341C103.858 89.9667 105.485 94.3167 105.924 95.1786C106.003 95.3333 106.004 95.8287 106.347 95.4672C106.411 95.3982 106.686 94.0401 106.86 93.6436C107.108 93.0754 108.619 89.5352 108.817 89.4114C109.138 89.2107 110.703 89.4863 111.221 89.3775L112.236 99.7293H109.595C109.677 97.9917 109.516 96.283 109.393 94.5524C109.376 94.3147 109.546 93.6616 109.091 93.8424C108.841 93.9422 107.361 98.2144 106.979 98.7916C104.869 99.4677 104.953 97.9767 104.289 96.6126L102.899 94.0471C102.812 94.9768 102.909 99.0553 102.514 99.6105C102.3 99.9111 100.713 99.6385 100.257 99.7293L100.866 89.3755C101.484 89.4144 102.991 89.2516 103.452 89.6321L103.454 89.6341Z" fill="black"/>
<path d="M92.2956 89.4313C101.052 88.1471 100.95 100.827 92.6471 99.934C86.7981 99.3048 86.7352 90.2472 92.2956 89.4313ZM91.5936 97.2317C91.7893 97.4054 92.6731 97.7679 92.9437 97.8189C97.155 98.6148 97.5904 90.7315 92.8658 91.4196C90.3922 91.7801 90.0876 95.8905 91.5936 97.2317Z" fill="black"/>
<path d="M78.1358 99.9335V89.3789H82.0934C82.1783 89.3789 83.4226 89.7564 83.6682 89.8333C88.0253 91.1984 88.0023 97.9382 83.813 99.4212C81.9556 100.078 80.0042 99.4232 78.1348 99.9335H78.1358ZM80.5714 91.4091V97.7016C85.7454 98.4146 85.8283 90.762 80.5714 91.4091Z" fill="black"/>
<path d="M60.6807 89.5819C62.3913 89.3282 64.2378 89.3082 65.9305 89.7097C68.1065 90.225 68.9214 93.3357 67.3626 94.9446C66.9751 95.345 66.2491 95.4469 65.9585 95.8703L66.5407 96.2008L68.7986 99.729C68.2553 99.6162 66.5247 99.9048 66.1931 99.6971C66.0174 99.5862 64.3746 96.2817 64.091 96.119C63.8184 95.9622 63.2532 96.1269 62.9136 96.077V99.73H60.6807V89.5819ZM65.3293 91.4293C65.1606 91.2825 63.344 91.4923 62.9126 91.4074L62.9366 94.0238C63.7934 94.3743 65.8117 94.1656 65.7547 92.9543C65.7488 92.8364 65.3892 91.4813 65.3293 91.4293Z" fill="black"/>
<path d="M120.15 89.3811C120.869 89.5109 122.419 88.9827 122.586 89.8884C122.783 90.955 122.703 94.9815 122.584 96.1789C122.277 99.2587 119.966 100.386 117.052 99.8868C115.93 99.6951 114.061 98.1322 114.061 96.9927V89.5848C114.061 89.469 115.902 89.0636 116.254 89.7257C117.118 91.3564 115.76 96.071 116.993 97.3083C117.97 98.29 120.149 97.3862 120.149 96.3836V89.3811H120.15Z" fill="black"/>
<path d="M43.4283 89.3799V95.3677C43.4283 95.4996 43.7618 96.8158 43.8547 96.9706C44.3181 97.7415 45.81 97.9592 46.554 97.4789C46.7887 97.3281 47.284 96.3644 47.284 96.1796V89.3799H49.7197V96.5851C49.7197 97.0944 48.755 98.6463 48.3056 99.0268C46.6689 100.415 43.4253 100.22 42.0042 98.6173C41.8794 98.4765 41.1953 97.2751 41.1953 97.1933V89.3789H43.4283V89.3799Z" fill="black"/>
<path d="M58.6512 89.5828C58.7211 89.6567 58.804 91.3164 58.8539 91.612H53.9826V93.4385H58.2447V95.4678H53.9826V97.7007H58.8539V99.7299H51.7496L51.5469 89.5818C52.4407 89.7785 58.4075 89.3231 58.6512 89.5818V89.5828Z" fill="black"/>
<path d="M131.487 90.0149C131.632 90.2426 131.628 91.8584 131.183 91.9992C130.513 92.2119 127.905 90.664 126.899 91.6586C125.588 92.9539 129.213 93.6349 129.892 93.9425C131.518 94.6795 132.226 95.6272 131.831 97.5067C131.372 99.6807 128.684 100.09 126.837 99.8385C124.987 99.5858 123.729 99.1993 124.414 97.0892C124.632 96.8785 129.342 99.0206 129.498 96.7826C129.508 96.6398 129.534 96.3712 129.469 96.2943C129.366 96.1735 126.914 95.5793 126.442 95.3656C122.894 93.7498 124.094 89.2589 128.202 89.2539C128.663 89.2539 131.336 89.7782 131.487 90.0149Z" fill="black"/>
<path d="M32.0625 89.3789C33.7971 89.7025 35.6386 89.6126 37.4062 89.6475C42.1048 92.0083 39.2477 97.0275 34.4982 96.0768V99.7298H32.0625V89.3789ZM34.5271 94.2213C38.3559 94.7815 38.0224 90.7141 34.2945 91.4081C34.3414 92.3439 34.1297 93.3395 34.5271 94.2213Z" fill="black"/>
<path d="M72.6554 89.3789H70.2197V99.7298H72.6554V89.3789Z" fill="black"/>
<path d="M100.461 80.2482C100.199 81.6013 100.86 85.521 100.362 86.5406C99.9339 87.4184 97.4274 87.6031 97.0369 87.1248C96.978 87.0529 96.985 86.3658 97.0119 86.3379C97.2975 86.0393 100.114 87.5512 99.6493 84.9168C96.0193 86.5835 95.3103 80.4269 98.424 80.1303C99.0921 80.0664 99.6913 80.6067 100.461 80.2492V80.2482ZM98.3781 80.8923C96.5176 81.2857 97.5402 85.5589 99.2399 84.1988C99.905 83.6665 100.204 80.5058 98.3781 80.8923Z" fill="black"/>
<path d="M80.3692 77.8096H81.3848V80.447C84.9409 78.8422 85.585 85.2075 82.4943 85.3343C81.6884 85.3673 81.217 84.6553 80.3682 85.1156V77.8086L80.3692 77.8096ZM82.9506 81.1181C81.0912 79.5612 80.472 84.0211 81.931 84.4695C83.7945 85.0417 84.0032 81.9999 82.9506 81.1181Z" fill="black"/>
<path d="M77.5255 85.1161C76.3901 84.7496 74.9311 85.969 73.9764 84.7087C72.8409 83.2097 75.0809 81.7787 76.5109 82.0703C76.4031 80.09 75.3255 81.2474 74.0762 81.2584C74.26 79.4579 77.5255 79.8433 77.5255 81.564V85.1161ZM76.5119 82.8832C76.0286 82.9091 75.3835 82.7484 74.971 83.0679C73.5719 84.1505 76.9433 85.7762 76.5119 82.8832Z" fill="black"/>
<path d="M57.635 83.0869H54.5901C54.2775 85.0402 57.1636 84.0216 57.4322 84.3052C57.9296 84.8285 56.5075 85.2859 56.0971 85.3058C55.0705 85.3558 53.942 84.7306 53.6714 83.701C52.5838 79.5667 58.1123 78.5301 57.635 83.0859V83.0869ZM56.8231 82.4767C56.7182 80.2807 54.5851 80.2657 54.5911 82.4767H56.8231Z" fill="black"/>
<path d="M102.492 80.2432V83.9981C102.492 84.6871 104.319 84.4564 104.319 84.3027V80.2432H105.333V85.3173C104.791 85.5809 104.684 84.9008 104.613 84.8978C104.118 84.8789 103.641 85.4751 102.646 85.2663C102.113 85.1545 101.477 84.2677 101.477 83.7943V80.2422H102.491L102.492 80.2432Z" fill="black"/>
<path d="M68.1426 80.0816C71.3192 79.6991 71.5499 85.1936 68.4921 85.3344C65.3923 85.4772 65.5591 80.3932 68.1426 80.0816ZM69.3599 84.2589C70.3106 83.3122 69.7264 80.1205 67.832 81.0073C66.7904 81.4946 66.9012 84.3248 68.0976 84.5135C68.4172 84.5645 69.1332 84.4846 69.3599 84.2589Z" fill="black"/>
<path d="M110.408 83.0888H107.16C107.022 85.3337 109.987 84.0834 110.205 84.3081C110.848 84.9732 108.666 85.3437 108.128 85.2838C105.284 84.9672 105.71 79.1751 109.203 80.3375C110.133 80.6471 110.283 82.2389 110.408 83.0888ZM109.142 81.1075C108.289 80.2476 106.886 81.3312 107.16 82.4786C107.908 82.4866 108.672 82.5595 109.376 82.2579C109.497 82.0811 109.317 81.2842 109.143 81.1075H109.142Z" fill="black"/>
<path d="M95.5908 85.1185C95.5618 85.1465 94.7789 85.1595 94.7789 85.1185V81.7691C94.7789 80.7345 92.7496 80.6107 92.7496 81.3637V85.1185H91.736C92.2224 83.5227 91.6621 82.0527 91.734 80.4489C92.457 80.7225 93.0123 80.1134 93.4767 80.0435C94.1897 79.9366 95.5918 80.5438 95.5918 81.3637C95.5918 81.8869 95.7266 84.9887 95.5918 85.1185H95.5908Z" fill="black"/>
<path d="M61.4643 80.478C61.5722 80.6367 61.4593 81.0332 61.4913 81.2609C61.4094 81.3558 59.2224 80.3062 59.2443 81.3608C59.2673 82.4443 61.8508 82.3614 61.696 83.9812C61.5632 85.3693 59.6618 85.6779 58.6641 85.0038C58.2447 84.7202 57.997 84.118 58.5513 83.9023C59.0416 83.7116 59.1215 84.5344 59.9764 84.5214C60.3289 84.5165 60.6944 84.4426 60.6894 84.0032C60.6784 83.0375 58.3176 83.0135 58.2247 81.5675C58.1139 79.8388 61.0529 79.8738 61.4653 80.479L61.4643 80.478Z" fill="black"/>
<path d="M65.9557 81.0568C65.702 81.2825 63.1026 79.8874 63.0946 82.5798C63.0896 84.1836 63.9095 84.5411 65.2686 84.3254C66.2633 84.1676 65.746 85.2032 64.8212 85.315C61.4768 85.7175 61.4009 80.0682 64.4308 80.0352C64.967 80.0292 65.9956 80.3698 65.9567 81.0558L65.9557 81.0568Z" fill="black"/>
<path d="M72.4523 77.8136V83.5977C72.4523 84.121 73.7166 84.816 73.2632 85.3223C73.2163 85.3743 71.936 85.1276 71.8831 85.0817C71.5975 84.834 71.5116 79.0399 71.6404 78.3209C71.7303 77.8176 71.965 77.7587 72.4523 77.8136Z" fill="black"/>
<path d="M87.4717 77.8097C87.6894 77.8137 87.8921 77.7537 88.0918 77.8995C88.5991 78.27 88.0579 84.0751 88.2916 84.2968C88.4204 84.4187 89.429 84.0512 89.2992 85.0138C89.2812 85.1497 87.4717 85.4083 87.4717 84.6094V77.8097Z" fill="black"/>
<path d="M86.2549 80.2432V85.1145C86.2549 85.1555 85.473 85.1435 85.444 85.1145C85.2703 84.9488 85.5229 80.9722 85.2363 80.347L86.2549 80.2422V80.2432Z" fill="black"/>
<path d="M90.7201 80.2479V85.1192C90.7201 85.1602 89.9082 85.1602 89.9082 85.1192V80.2479C89.9082 80.2069 90.5743 80.2748 90.7201 80.2479Z" fill="black"/>
<path d="M90.9224 78.0133C91.0043 79.0349 91.0692 79.4483 89.9098 79.4343C89.8499 78.5096 89.7809 77.8495 90.9224 78.0133Z" fill="black"/>
<path d="M85.7497 78.0151C86.4348 77.8533 86.4987 79.4991 85.546 79.2305C84.9758 79.0697 85.3443 78.111 85.7497 78.0151Z" fill="black"/>
</g>
</svg>
