<svg width="164" height="112" viewBox="0 0 164 112" fill="none" xmlns="http://www.w3.org/2000/svg">
<g opacity="0.7">
<path d="M93.6467 48.337V40.8027C93.6467 40.6415 93.2198 40.2327 93.0295 40.1735C92.2032 39.9155 91.8861 40.5892 92.0249 39.2461H96.3904C96.5636 40.639 96.1016 39.8667 95.2993 40.2121C95.0901 40.3021 94.7687 40.7307 94.7687 40.9278V51.5753C94.347 51.517 93.657 51.7185 93.3355 51.4502L87.2643 42.3198L86.9121 41.9873V49.7702C86.9121 49.9647 87.2035 50.5467 87.4135 50.6393C88.0546 50.9222 88.8518 50.2502 88.6581 51.5762H84.1683V50.7036C84.9492 50.7696 85.5912 50.767 85.7823 49.8876C85.6006 47.083 86.0481 43.9338 85.7952 41.1713C85.6563 39.6541 84.3346 40.2858 84.1675 40.1195C84.1263 40.0784 84.1975 39.4167 84.1675 39.247H87.4726L93.6467 48.3379V48.337Z" fill="black"/>
<path d="M113.601 38.5L113.477 43.3557C114.01 43.2152 114.214 42.6726 114.716 42.4146C115.903 41.8043 117.764 42.0717 118.589 43.1706C119.041 43.7723 119.16 44.6732 119.212 45.4129C119.307 46.7415 118.976 48.9641 119.241 50.1169C119.427 50.9261 120.382 50.6269 120.462 50.7032C120.502 50.7418 120.433 51.4069 120.462 51.5758H117.219V45.1626C117.219 44.6835 116.77 43.8066 116.31 43.5803C115.201 43.0343 114.155 43.6009 113.791 44.728C113.548 45.478 113.457 49.2272 113.629 49.9935C113.906 51.2227 115.408 50.1246 115.1 51.5767H110.111C110.139 51.4078 110.07 50.7435 110.111 50.7041C110.272 50.5472 111.48 51.1198 111.615 49.6524C111.892 46.6146 111.402 43.1492 111.601 40.0652C111.408 38.8386 109.755 39.9392 110.112 38.5009H113.604L113.601 38.5Z" fill="black"/>
<path d="M81.5492 55.9345L81.4258 61.0396C81.6949 60.8699 81.8123 60.4731 82.0609 60.2433C83.4264 58.9816 86.2121 59.4213 86.8464 61.2925C87.401 62.9288 86.6012 66.6205 87.2338 67.7545C87.6392 68.4805 88.7055 67.7657 88.409 69.0103H85.1664V62.7214C85.1664 62.2268 84.7481 61.2539 84.2569 61.0139C82.8195 60.3102 81.7026 61.4288 81.5483 62.8448C81.4481 63.7654 81.4198 66.5717 81.5569 67.4451C81.7403 68.6125 83.2712 67.6371 82.9206 69.0094H78.0563C77.722 67.5848 79.3292 68.6854 79.546 67.3208C79.348 64.2762 79.8332 60.8562 79.5589 57.8579C79.4243 56.3905 78.2166 56.9622 78.0555 56.8062C78.0152 56.7667 78.0846 56.1033 78.0555 55.9336H81.5475L81.5492 55.9345Z" fill="black"/>
<path d="M67.0824 59.7977C66.8209 58.296 66.4849 57.3994 64.7664 57.5494C62.7958 57.7217 62.7615 60.18 64.2195 61.2206C66.4446 62.8089 69.6015 62.5183 69.065 66.4475C68.6929 69.175 64.4201 69.7981 62.3809 68.7841C60.7986 67.9972 60.4369 65.5741 62.5892 65.3992C62.668 67.4461 63.9195 68.8672 66.0572 68.0521C67.0627 67.6689 67.3344 66.8581 67.2075 65.8321C66.9341 63.6138 62.5026 63.7629 61.5666 61.1289C60.2946 57.5477 63.9452 55.8677 66.9555 56.7446C68.9381 57.3223 69.4764 59.5183 67.0815 59.7969L67.0824 59.7977Z" fill="black"/>
<path d="M62.5896 47.9626C62.7096 49.7481 63.4793 51.0758 65.4662 50.7706C67.453 50.4655 67.8619 48.2815 66.3945 47.0918C64.4925 45.5489 61.0621 45.7443 61.345 42.0492C61.5953 38.7774 67.0228 38.1748 68.3848 40.2483C69.2368 41.546 67.7573 42.6732 67.0725 42.1812C66.8642 42.0312 67.0073 40.4034 65.743 40.1463C63.2136 39.632 62.3033 42.2309 64.099 43.6563C66.2813 45.3877 69.6173 44.9703 69.0662 49.0109C68.5862 52.5278 61.1616 52.7704 61.0913 49.3898C61.0707 48.4246 61.7333 48.0766 62.5913 47.9626H62.5896Z" fill="black"/>
<path d="M141.976 51.577C141.672 51.4785 141.731 50.197 141.477 50.2099C139.961 52.7753 136.006 52.1659 136.065 48.9139C136.117 46.1153 139.353 46.1761 141.415 46.099C141.42 44.7336 141.688 42.8787 139.743 43.1204C138.359 43.2927 138.779 44.7464 138.541 44.9718C138.301 45.1998 137.022 44.7567 136.856 44.2364C136.099 41.8638 141.958 41.287 143.062 43.3947C143.884 44.9641 143.122 48.2101 143.418 50.0127C143.579 50.9967 144.44 50.6153 144.534 50.7045C144.573 50.7422 144.505 51.4082 144.533 51.577C144.025 51.577 142.297 51.6807 141.976 51.577ZM141.415 46.9699C139.508 46.9476 137.963 47.0839 138.167 49.405C138.36 51.6036 141.415 50.3907 141.415 48.9002V46.9699Z" fill="black"/>
<path d="M102.601 59.5808C106.67 59.1891 107.931 62.6991 107.186 66.1517C106.237 70.5497 99.4625 70.3612 99.0117 65.3331C98.7622 62.5517 99.4214 59.8877 102.601 59.5817V59.5808ZM103.083 60.5862C100.847 60.6291 100.865 63.8211 101.021 65.4428C101.185 67.146 102.103 68.8774 104.091 68.0426C105.487 67.4554 105.448 63.99 105.214 62.7514C104.982 61.5231 104.491 60.5605 103.083 60.5871V60.5862Z" fill="black"/>
<path d="M124.926 42.1491C128.924 41.7454 130.082 44.8114 129.677 48.2632C129.168 52.6132 122.996 52.9981 121.704 49.2772C120.734 46.482 121.436 42.5014 124.926 42.1491ZM125.423 43.134C124.029 43.2429 123.567 44.43 123.457 45.6635C123.346 46.8969 123.265 50.3409 124.917 50.6761C126.834 51.0652 127.54 49.8541 127.693 48.15C127.84 46.5 127.862 42.9437 125.423 43.134Z" fill="black"/>
<path d="M92.8705 59.5841C96.7714 59.177 97.9885 62.171 97.6037 65.555C97.266 68.5233 94.7357 69.851 91.9568 69.0213C88.2565 67.9164 88.0799 60.0847 92.8714 59.585L92.8705 59.5841ZM94.8522 61.0858C94.1082 60.3427 92.6116 60.4473 91.9602 61.2898C91.0473 62.4718 91.1099 66.1807 91.9216 67.4364C92.5242 68.3699 94.1322 68.4864 94.8771 67.6884C95.9237 66.5673 95.9382 62.1701 94.8531 61.0858H94.8522Z" fill="black"/>
<path d="M150.145 44.854C150.596 42.9203 147.489 42.4265 147.176 44.0757C146.899 45.5337 149.422 45.9948 150.397 46.5323C151.874 47.3474 152.414 48.7377 151.664 50.2917C150.876 51.9255 147.614 52.186 146.236 51.3083C145.017 50.5317 145.034 48.724 146.652 48.5886C146.757 50.1117 147.386 51.0794 149.055 50.8C150.045 50.6337 150.613 49.678 150.178 48.7429C149.737 47.7914 146.391 47.4571 145.719 45.7231C144.555 42.7128 148.137 41.5668 150.465 42.3545C152.081 42.9014 152.043 45.0048 150.145 44.854Z" fill="black"/>
<path d="M133.931 38.5V50.0192C133.931 50.1804 134.358 50.5892 134.549 50.6484C135.375 50.9064 135.692 50.2327 135.553 51.5758H130.315C130.336 51.3615 130.251 50.9895 130.369 50.8207C130.571 50.5327 131.819 51.0401 131.944 49.7784C132.245 46.7269 131.711 43.1715 131.928 40.0652C131.777 39.1051 130.629 39.4463 130.452 39.2354C130.377 39.1454 130.474 38.6766 130.439 38.5009H133.931V38.5Z" fill="black"/>
<path d="M109.32 43.0274C109.911 43.7252 109.622 44.92 108.668 45.0974C107.489 45.3169 107.961 44.7254 107.641 43.8949C107.178 42.6914 105.582 42.994 105.027 43.9532C104.283 45.2397 104.193 49.2992 105.577 50.1889C106.455 50.7538 107.688 50.6183 108.529 50.0646C108.725 49.9352 109.316 49.2143 109.484 49.3386C110.223 52.0155 106.091 52.1689 104.456 51.3083C101.829 49.9258 101.797 44.044 104.333 42.6374C105.591 41.9397 108.335 41.8626 109.32 43.0266V43.0274Z" fill="black"/>
<path d="M75.8287 62.5167C75.647 62.4027 75.8305 60.9138 74.8207 60.5976C72.0684 59.737 71.9964 65.6813 73.0139 67.1333C73.7287 68.1533 75.3213 68.2219 76.3139 67.5816C76.6653 67.5773 77.051 66.6987 77.2439 66.7699C78.2159 67.1256 77.1727 68.5227 76.4639 68.8519C74.597 69.7202 71.8841 69.1785 70.925 67.2267C70.0661 65.4782 70.211 61.5747 71.8833 60.2933C73.3147 59.197 77.6708 59.2467 77.5653 61.4744C77.5285 62.2459 76.397 62.8741 75.8287 62.5176V62.5167Z" fill="black"/>
<path d="M111.481 55.9345V67.2042C111.481 67.3491 111.705 67.836 111.855 67.9517C112.445 68.4077 113.373 67.8111 113.103 69.0094H107.989C108.024 68.8337 107.927 68.3648 108.002 68.2748C108.216 68.0185 109.416 68.4942 109.599 67.1922C109.446 64.2428 109.843 61.0251 109.615 58.1073C109.573 57.5605 109.54 56.981 108.897 56.8319C108.203 56.6707 107.876 57.0607 107.988 55.9336H111.481L111.481 55.9345Z" fill="black"/>
<path d="M73.0676 40.2454V42.1757C73.0676 42.1885 73.2416 42.3625 73.2545 42.3625H75.3125V43.3585H73.2545C73.2416 43.3585 73.0676 43.5325 73.0676 43.5454V49.398C73.0676 49.4426 73.2845 50.0443 73.3333 50.1283C73.9368 51.1654 75.3854 50.4043 75.5619 50.58C75.6176 51.3926 75.6588 51.5126 74.8454 51.672C73.1002 52.014 71.367 51.6995 71.1913 49.6509C71.0242 47.7017 71.3396 45.5357 71.1785 43.5617C71.0568 43.1897 70.1473 43.4143 69.8233 43.3577C69.621 42.342 70.7208 42.6368 71.3208 42.0505C71.7913 41.5911 72.0073 40.3217 72.0811 40.2574C72.1753 40.1759 72.8576 40.2865 73.0668 40.2445L73.0676 40.2454Z" fill="black"/>
<path d="M100.257 42.3633V49.8976C100.257 50.0948 100.578 50.5233 100.788 50.6133C101.59 50.9579 102.051 50.1865 101.879 51.5793H96.765C96.6973 50.3528 96.7315 50.8362 97.5681 50.6999C98.139 50.6065 98.2204 50.2928 98.2676 49.7793C98.4398 47.9005 98.1501 45.7327 98.235 43.823C98.0593 43.0593 97.0315 43.253 96.9021 43.0996C96.8275 43.0113 96.9235 42.539 96.8901 42.3641H100.258L100.257 42.3633Z" fill="black"/>
<path d="M78.6445 51.4169C77.5482 52.5115 75.6917 50.9121 76.7357 49.5732C77.766 48.254 79.8583 50.2041 78.6445 51.4169Z" fill="black"/>
<path d="M98.9805 38.3971C100.865 38.1237 100.84 41.02 98.9788 40.7123C97.7085 40.5023 97.7428 38.5771 98.9805 38.3971Z" fill="black"/>
<path d="M23.6398 68.9397C25.1182 68.9397 26.3166 67.7412 26.3166 66.2628C26.3166 64.7844 25.1182 63.5859 23.6398 63.5859C22.1614 63.5859 20.9629 64.7844 20.9629 66.2628C20.9629 67.7412 22.1614 68.9397 23.6398 68.9397Z" fill="black"/>
<path d="M32.4054 68.9397C33.8838 68.9397 35.0823 67.7412 35.0823 66.2628C35.0823 64.7844 33.8838 63.5859 32.4054 63.5859C30.927 63.5859 29.7285 64.7844 29.7285 66.2628C29.7285 67.7412 30.927 68.9397 32.4054 68.9397Z" fill="black"/>
<path d="M41.0743 68.9397C42.5527 68.9397 43.7512 67.7412 43.7512 66.2628C43.7512 64.7844 42.5527 63.5859 41.0743 63.5859C39.5959 63.5859 38.3975 64.7844 38.3975 66.2628C38.3975 67.7412 39.5959 68.9397 41.0743 68.9397Z" fill="black"/>
<path d="M49.2768 32.4048C50.4811 32.4708 51.5226 33.5217 51.586 34.714C51.2637 41.9817 51.9966 49.5915 51.586 56.819C51.3211 61.4939 49.3737 65.6871 46.51 69.2819C43.5614 72.9831 37.8528 77.6331 33.399 79.3269C32.9079 79.5137 32.5513 79.5943 32.2324 79.5943C31.7147 79.5943 31.2964 79.3834 30.5636 79.0791C22.1189 75.5588 13.6452 66.9968 13.1257 57.4447C12.716 49.9198 13.4489 42.028 13.1266 34.4646C13.2029 33.2311 14.2477 32.4468 15.4358 32.4048H49.2751M49.3043 31.4062H15.4015C13.61 31.4705 12.2343 32.7305 12.1306 34.4028L12.1272 34.4551L12.1297 34.5074C12.2832 38.1057 12.1932 41.8583 12.1066 45.4866C12.0123 49.4501 11.9137 53.549 12.1289 57.4996C12.3834 62.1787 14.4535 66.9076 18.1152 71.1754C21.3869 74.988 25.6718 78.1226 30.1796 80.0023C30.2747 80.0417 30.3647 80.0803 30.4496 80.1163C31.0813 80.3837 31.581 80.5954 32.2324 80.5954C32.6816 80.5954 33.1513 80.4926 33.7547 80.2629C38.5016 78.4577 44.3654 73.5797 47.2917 69.9068C50.5446 65.8225 52.3249 61.439 52.5837 56.8781C52.7997 53.0784 52.702 49.1304 52.6069 45.3118C52.5203 41.8223 52.4311 38.2146 52.5837 34.7611L52.5863 34.7123L52.5837 34.6634C52.4929 32.9628 51.034 31.504 49.3317 31.4105L49.3043 31.4088V31.4062Z" fill="black"/>
<path d="M46.624 39.994C45.7111 40.2657 45.4454 39.496 45.2774 38.7734C44.9679 39.1077 43.4662 41.1975 43.4636 41.4615C43.4585 41.9355 44.6259 41.9235 44.7159 42.2063V54.0033C44.4811 54.0573 44.4751 53.9235 44.3628 53.795C43.9436 53.3141 43.2408 51.8947 42.9039 51.2595C41.3671 48.3624 38.457 40.5177 35.565 39.2492C33.081 38.1606 31.0401 41.9989 30.0116 43.7295C29.6181 44.3912 29.2676 45.0863 28.917 45.7695C27.3801 45.0521 23.4809 44.4546 22.6375 42.9392C22.1806 42.1163 22.3564 41.1426 23.1295 40.5923C25.0881 39.1943 26.9472 41.6655 28.0513 43.0155C28.4558 42.3297 29.4673 41.5583 29.8041 40.8923C29.9413 40.6215 29.5847 40.4346 29.4021 40.294C27.0818 38.5026 23.7947 38.4717 21.9458 40.9069C20.1398 43.2846 21.8986 45.7729 24.2155 46.8538C25.1644 47.2961 26.6224 47.3509 27.4041 47.7846C27.5198 47.8498 27.645 47.8858 27.6004 48.0504L24.6218 53.4444C24.0475 53.5207 23.5461 53.3458 22.9349 53.381C20.5315 53.5173 18.0286 55.1261 16.7746 57.0813C15.9517 58.3644 15.122 61.0524 17.3275 61.3567C19.8329 61.7022 21.4366 60.0907 22.7738 58.2119C23.3052 57.4653 23.7467 56.6604 24.1932 55.865C24.6175 55.7947 25.0984 56.3596 25.3427 56.489C25.617 56.6347 25.959 56.711 26.2787 56.8987C26.6695 57.1258 27.405 57.8313 27.7744 57.7301C29.7381 55.8041 33.0836 53.6758 33.3544 50.6921C33.615 47.8344 31.8656 47.0158 29.613 45.9521C30.3193 44.8909 31.8116 41.5592 33.0733 41.2986C34.2364 41.0586 35.2102 41.5557 35.7262 42.5835C35.6525 46.6318 35.8925 50.7187 35.5984 54.7455C33.4316 54.6358 31.3967 56.0527 31.1096 58.2461C31.9221 58.3533 32.3301 57.4644 33.0579 57.1378C33.8027 56.8018 34.7216 56.7598 35.4767 57.0633C36.0682 57.299 36.3776 57.8407 36.9099 58.1227C37.1636 57.6847 38.3893 56.3493 38.355 55.9447C38.3028 55.3027 36.6776 54.9984 36.2267 54.6898V43.2675C36.675 43.6395 37.0007 44.3535 37.2905 44.8875C39.4342 48.8321 41.0028 53.1804 43.5159 56.825C43.6908 57.0796 44.3971 58.0061 44.5797 58.1647C44.7665 58.3284 45.1137 58.2967 45.1977 58.0421L45.2174 42.208C45.2894 41.734 45.8405 41.7615 46.1774 41.5455C46.5622 41.2986 47.71 40.282 47.7142 39.8312C47.7202 39.0383 46.7431 39.9589 46.6248 39.9932L46.624 39.994ZM21.9724 58.0361C20.8898 59.4839 19.3221 60.9496 17.3446 60.5887C15.6835 60.2844 17.2735 57.5999 17.9378 56.8721C19.4146 55.2556 21.4332 54.9435 23.4938 55.5015C23.6009 55.6035 22.1541 57.7944 21.9724 58.0353V58.0361ZM31.0478 53.7547C30.7736 54.0915 29.193 55.6576 28.8604 55.5624C28.6967 55.5135 28.3538 55.1475 28.1515 55.0258C27.2952 54.5055 26.3541 53.9673 25.3667 53.753L28.3573 48.1901C31.2038 48.9444 33.3433 50.9355 31.047 53.7547H31.0478Z" fill="black"/>
<path d="M35.1923 72.0068C34.3746 72.2494 34.4654 74.6083 34.9763 74.9168C35.1597 75.0283 35.7966 75.0146 36.0134 74.9503C36.8946 74.6923 37.0249 71.4634 35.1923 72.0068ZM35.8386 74.526C35.5454 74.9606 35.5051 74.6306 35.3071 74.3966C35.2506 74.3314 35.104 74.3631 35.104 74.3528C35.104 74.0597 35.0543 72.5588 35.104 72.48C35.1229 72.4517 35.656 72.3274 35.7743 72.3643C36.106 72.4663 36.0426 74.2234 35.8394 74.526H35.8386Z" fill="black"/>
<path d="M33.8671 73.3994C33.832 73.1997 34.2674 72.976 34.2092 72.5714C34.1329 72.0631 33.5011 71.9482 33.0786 72.0057C31.8014 72.1788 32.836 73.2477 32.8351 73.4174C32.8343 73.5322 32.272 73.8031 32.3774 74.3851C32.5326 75.2568 34.3549 75.358 34.3232 74.0105C34.3154 73.6994 33.9014 73.6 33.8671 73.3985V73.3994ZM33.6143 72.2842C34.1483 72.6622 33.3323 73.4868 32.9997 72.9622C32.776 72.6099 33.1574 71.9619 33.6143 72.2842ZM33.4129 74.7314C32.8223 74.7914 32.9911 74.1425 32.9809 73.7294C33.8749 73.4482 34.1903 74.6542 33.4129 74.7314Z" fill="black"/>
<path d="M31.6069 72.0478C29.8789 71.2686 29.5969 74.5069 31.6069 73.7321C31.5932 74.1315 31.336 74.9089 30.8089 74.7169C30.5757 74.6312 30.7214 74.2515 30.3606 74.3561C30.178 75.0735 30.9752 75.1249 31.48 74.9132C32.2763 74.5815 32.386 72.4001 31.606 72.0486L31.6069 72.0478ZM30.7472 73.4681C30.7094 73.1483 30.6897 72.5929 30.9203 72.3555C31.5606 71.6955 32.182 73.9669 30.7472 73.4681Z" fill="black"/>
<path d="M29.8588 74.9767H28.2388C28.153 74.5772 28.5096 74.7555 28.7368 74.7281V72.9178C28.7368 72.6718 28.0142 72.9315 28.1128 72.5449C28.1436 72.4224 29.131 71.8609 29.3608 71.9818V74.5412C29.3608 74.7538 29.9925 74.5927 29.8588 74.9767Z" fill="black"/>
<path d="M29.3608 74.5421V71.9826C29.131 71.8618 28.1436 72.4232 28.1128 72.5458C28.0142 72.9323 28.7368 72.6735 28.7368 72.9186V74.7289C28.5096 74.7564 28.1522 74.5781 28.2388 74.9775H29.8588C29.9925 74.5926 29.3608 74.7538 29.3608 74.5421ZM31.6065 72.0478C29.8785 71.2686 29.5965 74.5069 31.6065 73.7321C31.5928 74.1315 31.3356 74.9089 30.8085 74.7169C30.5753 74.6312 30.7211 74.2515 30.3602 74.3561C30.1776 75.0735 30.9748 75.1249 31.4796 74.9132C32.2759 74.5815 32.3856 72.4001 31.6056 72.0486L31.6065 72.0478ZM30.7468 73.4681C30.7091 73.1483 30.6893 72.5929 30.9199 72.3555C31.5602 71.6955 32.1816 73.9669 30.7468 73.4681ZM33.8668 73.4012C33.8317 73.2015 34.2671 72.9778 34.2088 72.5732C34.1325 72.0649 33.5008 71.9501 33.0782 72.0075C31.8011 72.1806 32.8356 73.2495 32.8348 73.4192C32.8339 73.5341 32.2716 73.8049 32.3771 74.3869C32.5322 75.2586 34.3545 75.3598 34.3228 74.0124C34.3151 73.7012 33.9011 73.6018 33.8668 73.4003V73.4012ZM33.6139 72.2861C34.1479 72.6641 33.3319 73.4886 32.9994 72.9641C32.7756 72.6118 33.1571 71.9638 33.6139 72.2861ZM33.4125 74.7332C32.8219 74.7932 32.9908 74.1444 32.9805 73.7312C33.8745 73.4501 34.1899 74.6561 33.4125 74.7332ZM35.1919 72.0092C34.3742 72.2518 34.4651 74.6106 34.9759 74.9192C35.1594 75.0306 35.7962 75.0169 36.0131 74.9526C36.8942 74.6946 37.0245 71.4658 35.1919 72.0092ZM35.8382 74.5284C35.5451 74.9629 35.5048 74.6329 35.3068 74.3989C35.2502 74.3338 35.1037 74.3655 35.1037 74.3552C35.1037 74.0621 35.0539 72.5612 35.1037 72.4823C35.1225 72.4541 35.6557 72.3298 35.774 72.3666C36.1057 72.4686 36.0422 74.2258 35.8391 74.5284H35.8382Z" fill="black"/>
</g>
</svg>
