<svg width="164" height="112" viewBox="0 0 164 112" fill="none" xmlns="http://www.w3.org/2000/svg">
<g opacity="0.7">
<path d="M70.6412 41.5259L72.3182 42.0196C72.2045 42.4793 72.0282 42.8628 71.7857 43.1702C71.5432 43.4776 71.2425 43.7087 70.8837 43.8656C70.5248 44.0215 70.0667 44.1003 69.5118 44.1003C68.8389 44.1003 68.2885 44.0054 67.8617 43.8145C67.4357 43.6236 67.067 43.2885 66.7574 42.8073C66.4478 42.327 66.293 41.7114 66.293 40.9631C66.293 39.964 66.5659 39.1969 67.11 38.6602C67.6559 38.1234 68.4272 37.8555 69.4232 37.8555C70.2036 37.8555 70.8184 38.0096 71.2649 38.317C71.7105 38.6243 72.0425 39.0957 72.26 39.7337L70.5687 40.1002C70.5105 39.9156 70.4479 39.7821 70.3825 39.6951C70.2761 39.5536 70.1445 39.4442 69.9906 39.3663C69.8358 39.2883 69.6613 39.2516 69.4698 39.2516C69.0358 39.2516 68.7038 39.4209 68.4729 39.7615C68.2984 40.0142 68.2107 40.4102 68.2107 40.9497C68.2107 41.62 68.3145 42.0788 68.5221 42.327C68.7306 42.5752 69.0241 42.6997 69.4018 42.6997C69.7794 42.6997 70.0452 42.5985 70.2322 42.3996C70.4201 42.1988 70.5562 41.9076 70.6412 41.5259Z" fill="black"/>
<path d="M73.0938 40.9819C73.0938 39.9962 73.3747 39.2292 73.9385 38.679C74.5014 38.1306 75.2862 37.8555 76.292 37.8555C77.2979 37.8555 78.1176 38.1252 78.6742 38.6646C79.2326 39.2041 79.5127 39.9595 79.5127 40.9327C79.5127 41.6388 79.3901 42.2176 79.1467 42.6684C78.9033 43.12 78.5507 43.4713 78.0907 43.7231C77.6299 43.9749 77.0554 44.1003 76.369 44.1003C75.6826 44.1003 75.0911 43.9919 74.6347 43.7751C74.1766 43.5573 73.8043 43.215 73.5206 42.7454C73.236 42.2741 73.0938 41.6881 73.0938 40.9819ZM75.0088 40.9891C75.0088 41.5993 75.1251 42.0375 75.3569 42.3028C75.5896 42.5698 75.9054 42.7033 76.3055 42.7033C76.7055 42.7033 77.0357 42.5725 77.2612 42.3117C77.4858 42.051 77.5986 41.5814 77.5986 40.9076C77.5986 40.3394 77.4804 39.9237 77.246 39.6611C77.0106 39.3985 76.6911 39.2686 76.2885 39.2686C75.8858 39.2686 75.5922 39.4012 75.3596 39.6674C75.1251 39.9344 75.0088 40.3753 75.0088 40.99V40.9891Z" fill="black"/>
<path d="M80.6309 37.957H82.5441V42.5101H85.533V43.9976H80.6309V37.957Z" fill="black"/>
<path d="M86.4854 37.9571H91.6148V39.2466H88.4031V40.2072H91.383V41.4393H88.4031V42.6284H91.7087V43.9977H86.4854V37.9571ZM88.9355 36.3594H90.4148L89.051 37.5906H88.225L88.9355 36.3594Z" fill="black"/>
<path d="M95.9383 41.8099V40.5527H98.8968V43.1281C98.3312 43.5035 97.8301 43.7598 97.3952 43.896C96.9594 44.0313 96.4439 44.0994 95.847 44.0994C95.1097 44.0994 94.5119 43.9776 94.0474 43.7329C93.5839 43.4892 93.2259 43.1245 92.97 42.6415C92.7141 42.1585 92.5879 41.6038 92.5879 40.9775C92.5879 40.317 92.7275 39.7453 93.0058 39.257C93.285 38.7695 93.6931 38.3994 94.2327 38.1476C94.6515 37.9522 95.2161 37.8555 95.9267 37.8555C96.6372 37.8555 97.1222 37.9146 97.4623 38.0356C97.8023 38.1583 98.0833 38.3447 98.3088 38.5983C98.5326 38.8528 98.6999 39.1745 98.8144 39.5643L96.9665 39.886C96.8896 39.6575 96.7625 39.4837 96.5799 39.3627C96.3992 39.2417 96.1665 39.1817 95.8855 39.1817C95.4649 39.1817 95.1302 39.3242 94.8824 39.6082C94.6327 39.8932 94.5092 40.3421 94.5092 40.9577C94.5092 41.6119 94.6345 42.0797 94.8859 42.3592C95.1392 42.6397 95.49 42.7786 95.9401 42.7786C96.154 42.7786 96.3607 42.749 96.5531 42.689C96.7482 42.629 96.971 42.525 97.2207 42.3789V41.8108H95.9401L95.9383 41.8099Z" fill="black"/>
<path d="M102.115 37.957H100.196V43.9976H102.115V37.957Z" fill="black"/>
<path d="M103.337 40.981C103.337 39.9962 103.619 39.2292 104.182 38.679C104.745 38.1306 105.53 37.8555 106.534 37.8555C107.538 37.8555 108.362 38.1252 108.919 38.6646C109.476 39.205 109.757 39.9604 109.757 40.9327C109.757 41.6388 109.634 42.2176 109.39 42.6684C109.147 43.1209 108.795 43.4704 108.333 43.7231C107.873 43.9749 107.299 44.1003 106.613 44.1003C105.927 44.1003 105.336 43.9919 104.876 43.7751C104.42 43.5573 104.048 43.215 103.763 42.7454C103.478 42.2741 103.338 41.6881 103.338 40.981H103.337ZM105.25 40.9891C105.25 41.5993 105.366 42.0375 105.598 42.3028C105.832 42.5698 106.148 42.7033 106.547 42.7033C106.946 42.7033 107.278 42.5725 107.502 42.3117C107.726 42.051 107.84 41.5814 107.84 40.9076C107.84 40.3394 107.723 39.9237 107.487 39.6611C107.252 39.3994 106.933 39.2686 106.531 39.2686C106.129 39.2686 105.835 39.4021 105.601 39.6683C105.367 39.9344 105.25 40.3762 105.25 40.99V40.9891Z" fill="black"/>
<path d="M117.653 43.0002H115.481L115.179 43.9976H113.224L115.553 37.957H117.642L119.97 43.9976H117.965L117.654 43.0002H117.653ZM117.257 41.6946L116.572 39.5234L115.898 41.6946H117.258H117.257Z" fill="black"/>
<path d="M120.664 37.957H122.578V42.5101H125.565V43.9976H120.663V37.957H120.664Z" fill="black"/>
<path d="M126.526 37.957H130.109C130.708 37.957 131.166 38.1022 131.486 38.3898C131.805 38.6784 131.965 39.0359 131.965 39.4607C131.965 39.8191 131.85 40.1238 131.623 40.3801C131.471 40.5503 131.248 40.6847 130.955 40.7833C131.401 40.8882 131.728 41.0674 131.937 41.321C132.149 41.5755 132.253 41.8936 132.253 42.2798C132.253 42.5916 132.178 42.873 132.029 43.1239C131.879 43.3739 131.675 43.5719 131.415 43.718C131.256 43.8076 131.012 43.873 130.688 43.9152C130.259 43.9707 129.972 43.9976 129.829 43.9976H126.526V37.957ZM128.458 40.3263H129.291C129.589 40.3263 129.795 40.2752 129.913 40.1749C130.031 40.0754 130.088 39.9302 130.088 39.742C130.088 39.5655 130.03 39.4284 129.913 39.3298C129.795 39.2304 129.591 39.1802 129.301 39.1802H128.458V40.3263ZM128.458 42.7H129.433C129.763 42.7 129.996 42.6418 130.129 42.528C130.266 42.4142 130.332 42.261 130.332 42.0692C130.332 41.8909 130.266 41.7475 130.132 41.6391C129.998 41.5306 129.764 41.476 129.429 41.476H128.458V42.7Z" fill="black"/>
<path d="M133.336 37.957H138.467V39.2456H135.255V40.2071H138.234V41.4392H135.255V42.6293H138.558V43.9976H133.337V37.957H133.336Z" fill="black"/>
<path d="M139.702 43.9976V37.957H142.892C143.485 37.957 143.938 38.0063 144.25 38.1058C144.562 38.2052 144.815 38.3889 145.005 38.656C145.198 38.923 145.293 39.2492 145.293 39.6336C145.293 39.9697 145.22 40.2582 145.073 40.5019C144.927 40.7448 144.724 40.9428 144.468 41.0934C144.304 41.1892 144.081 41.269 143.798 41.3335C144.024 41.4079 144.189 41.4814 144.296 41.5548C144.365 41.605 144.466 41.7099 144.602 41.873C144.735 42.0343 144.824 42.1588 144.87 42.2484L145.797 43.9985H143.633L142.61 42.1534C142.481 41.9133 142.366 41.7592 142.264 41.6875C142.125 41.5934 141.968 41.5459 141.794 41.5459H141.625V43.9985H139.703L139.702 43.9976ZM141.624 40.4043H142.432C142.52 40.4043 142.688 40.3774 142.939 40.3236C143.065 40.2985 143.169 40.2358 143.249 40.1336C143.332 40.0315 143.371 39.915 143.371 39.7833C143.371 39.5879 143.308 39.4383 143.181 39.3343C143.053 39.2295 142.816 39.1775 142.467 39.1775H141.625V40.4043H141.624Z" fill="black"/>
<path d="M146.059 37.957H151.876V39.449H149.924V43.9976H148.01V39.449H146.059V37.957H146.059Z" fill="black"/>
<path d="M65.6094 58.0724L70.9616 57.7463C71.0771 58.5931 71.3124 59.2391 71.6686 59.6836C72.2485 60.4014 73.0762 60.7607 74.1519 60.7607C74.9546 60.7607 75.5738 60.577 76.0087 60.2096C76.4436 59.844 76.6602 59.4175 76.6602 58.9336C76.6602 58.4497 76.4535 58.0626 76.04 57.6988C75.6266 57.3367 74.6655 56.9917 73.1594 56.6683C70.6923 56.1279 68.9329 55.4101 67.8824 54.514C66.8228 53.6189 66.2931 52.4763 66.2931 51.0892C66.2931 50.177 66.5642 49.3149 67.1065 48.5031C67.6479 47.693 68.464 47.055 69.5531 46.5908C70.6413 46.1266 72.1339 45.8945 74.0293 45.8945C76.3559 45.8945 78.1296 46.3166 79.3502 47.1598C80.5708 48.003 81.2983 49.3445 81.5301 51.1851L76.228 51.487C76.0866 50.6877 75.7895 50.1071 75.3402 49.7441C74.8892 49.3812 74.2646 49.1984 73.4709 49.1984C72.8167 49.1984 72.3236 49.3337 71.9925 49.6044C71.6605 49.875 71.4959 50.2038 71.4959 50.591C71.4959 50.8741 71.6319 51.1277 71.9048 51.3544C72.1706 51.5883 72.7997 51.8052 73.7921 52.0077C76.2512 52.5247 78.0123 53.0454 79.0772 53.5749C80.1413 54.1027 80.9144 54.7596 81.3986 55.5428C81.8836 56.3242 82.1252 57.2005 82.1252 58.1692C82.1252 59.3072 81.8021 60.3575 81.156 61.3154C80.5108 62.2769 79.6088 63.0045 78.449 63.501C77.2902 63.9974 75.8297 64.2456 74.0668 64.2456C70.9706 64.2456 68.8273 63.6649 67.6345 62.5027C66.4425 61.3405 65.7669 59.8637 65.6103 58.0715L65.6094 58.0724Z" fill="black"/>
<path d="M96.1467 61.0152H89.7599L88.8731 63.9463H83.1289L89.9702 46.1992H96.1073L102.947 63.9454H97.0567L96.1458 61.0152H96.1467ZM94.9806 57.1781L92.9707 50.7998L90.9823 57.1781H94.9806Z" fill="black"/>
<path d="M104.751 46.1953H115.281C117.037 46.1953 118.383 46.6192 119.323 47.466C120.262 48.3137 120.73 49.3621 120.73 50.613C120.73 51.6633 120.394 52.5621 119.726 53.313C119.279 53.813 118.625 54.2091 117.765 54.4994C119.072 54.8068 120.035 55.3328 120.652 56.0801C121.269 56.8266 121.576 57.7639 121.576 58.8938C121.576 59.8141 121.357 60.6421 120.92 61.3751C120.479 62.1099 119.88 62.6906 119.118 63.1198C118.646 63.386 117.934 63.5786 116.981 63.7014C115.714 63.8618 114.876 63.9433 114.46 63.9433H104.75V46.1962L104.751 46.1953ZM110.425 53.1553H112.871C113.749 53.1553 114.358 53.0092 114.704 52.7144C115.047 52.4196 115.216 51.993 115.216 51.4366C115.216 50.9204 115.047 50.5163 114.704 50.2259C114.358 49.9356 113.761 49.7904 112.909 49.7904H110.425V53.1553ZM110.425 60.1287H113.294C114.263 60.1287 114.945 59.962 115.343 59.6268C115.74 59.2926 115.938 58.8419 115.938 58.2773C115.938 57.7522 115.744 57.3311 115.348 57.0129C114.956 56.6939 114.268 56.5353 113.281 56.5353H110.425V60.1296V60.1287Z" fill="black"/>
<path d="M130.379 46.1953H124.742V63.9415H130.379V46.1953Z" fill="black"/>
<path d="M134.453 46.1953H139.705L146.561 56.0147V46.1953H151.863V63.9424H146.561L139.743 54.1974V63.9424H134.453V46.1953Z" fill="black"/>
<path d="M52.4627 54.886C51.8577 54.3537 50.4564 53.8465 48.2532 53.3671C44.6468 52.5642 42.0785 51.5033 40.5438 50.1887C38.9984 48.8732 38.2297 47.2002 38.2377 45.1688C38.2431 43.8345 38.644 42.5755 39.4413 41.3927C40.2396 40.208 41.4351 39.2797 43.0298 38.6067C43.6786 38.3334 44.4312 38.1183 45.2759 37.957H22.0208L12 63.9527H20.4127L21.7121 59.6613H31.068L32.4023 63.9527H44.407C42.5412 63.5279 41.1192 62.8353 40.1402 61.8755C38.4015 60.1694 37.4234 58.0053 37.2033 55.3833C37.2033 55.3833 37.1603 54.7077 37.2033 54.0249H44.9932C44.9932 54.3976 45.0334 54.9335 45.0334 54.9335C45.1999 56.1737 45.5408 57.12 46.0581 57.7705C46.9028 58.8243 48.1109 59.353 49.6859 59.3593C50.86 59.3638 51.7674 59.0976 52.4045 58.5618C53.0426 58.0268 53.3629 57.4058 53.3647 56.697C53.3674 56.0249 53.0667 55.4219 52.4636 54.8878L52.4627 54.886ZM23.5027 54.0392L26.4146 44.6948L29.3579 54.0392H23.5027ZM52.7687 45.8032C52.5665 44.6329 52.136 43.7816 51.4792 43.2476C50.8206 42.7153 49.9096 42.4465 48.748 42.442C47.7914 42.4384 47.0702 42.6337 46.5842 43.028C46.0983 43.4223 45.8549 43.9017 45.8522 44.468C45.8504 44.882 46.05 45.2539 46.4482 45.5864C46.8348 45.9296 47.7538 46.2531 49.2062 46.5524C52.8 47.3203 55.3728 48.0936 56.9263 48.8723C58.4798 49.6501 59.6091 50.6134 60.3134 51.7604C60.3886 51.885 60.4584 52.0096 60.5255 52.1368V45.3865L52.7687 45.8032Z" fill="black"/>
<path d="M12 67.829H15.9759V68.6982H12.9432V70.4277H15.5312V71.2458H12.9432V73.0264H15.9759V73.8956H12V67.8281V67.829Z" fill="black"/>
<path d="M17.834 69.5745H18.7262V70.0342H18.7432C19.0233 69.6937 19.4251 69.5234 19.8976 69.5234C20.5884 69.5234 21.375 70.0432 21.375 71.0226V73.8946H20.4828V71.3201C20.4828 70.7332 20.1088 70.3918 19.6094 70.3918C19.1101 70.3918 18.7271 70.7332 18.7271 71.3201V73.8946H17.8349V69.5736L17.834 69.5745Z" fill="black"/>
<path d="M23.715 72.5746C24.0989 72.9402 24.5194 73.1284 25.1136 73.1284C25.621 73.1284 25.9879 72.9402 25.9879 72.5746C25.9879 72.2673 25.7517 72.1732 25.4456 72.1481L24.6591 72.0791C23.9253 72.0208 23.3839 71.5943 23.3839 70.8523C23.3839 69.976 24.0998 69.5234 25.0349 69.5234C25.8125 69.5234 26.3378 69.7537 26.7745 70.1113L26.2242 70.743C25.8734 70.5029 25.5163 70.3407 25.0349 70.3407C24.4667 70.3407 24.2751 70.562 24.2751 70.8613C24.2751 71.0495 24.4147 71.2359 24.8613 71.2708L25.5951 71.3219C26.5141 71.381 26.8801 71.9268 26.8801 72.6167C26.8801 73.46 26.0765 73.9465 25.0447 73.9465C24.3288 73.9465 23.6639 73.6894 23.0957 73.1705L23.7159 72.5746H23.715Z" fill="black"/>
<path d="M28.8584 67.8281H29.7506V68.6973H28.8584V67.8281ZM28.8584 69.5746H29.7506V73.8956H28.8584V69.5746Z" fill="black"/>
<path d="M31.9824 69.5745H32.8737V70.0342H32.8916C33.1708 69.6937 33.5735 69.5234 34.046 69.5234C34.736 69.5234 35.5234 70.0432 35.5234 71.0226V73.8946H34.6321V71.3201C34.6321 70.7332 34.2554 70.3918 33.757 70.3918C33.2585 70.3918 32.8746 70.7332 32.8746 71.3201V73.8946H31.9833V69.5736L31.9824 69.5745Z" fill="black"/>
<path d="M40.0575 73.5119H40.0396C39.8553 73.8103 39.5492 73.9465 38.947 73.9465C37.959 73.9465 37.3818 73.3757 37.3818 72.6257C37.3818 71.9348 37.8713 71.3479 38.8244 71.3479H40.0575V70.8954C40.0575 70.4867 39.7855 70.3407 39.1483 70.3407C38.6848 70.3407 38.4664 70.4267 38.308 70.674L37.6091 70.1543C37.9501 69.6937 38.4396 69.5234 39.1036 69.5234C40.1953 69.5234 40.9479 69.881 40.9479 70.9455V73.8955H40.0566V73.5119H40.0575ZM40.0575 72.063H38.9899C38.4655 72.063 38.2221 72.2673 38.2221 72.5827C38.2221 72.873 38.4566 73.1284 39.0606 73.1284C39.8034 73.1284 40.0575 73.0505 40.0575 72.3784V72.063Z" fill="black"/>
<path d="M43.1543 69.5745H44.0456V70.0342H44.0635C44.3427 69.6937 44.7463 69.5234 45.2188 69.5234C45.5767 69.5234 45.8747 69.6507 46.1459 69.8559L45.498 70.6068C45.2886 70.4527 45.14 70.3926 44.9127 70.3926C44.4751 70.3926 44.0465 70.6651 44.0465 71.2968V73.8955H43.1552V69.5745H43.1543Z" fill="black"/>
<path d="M52.3063 72.0603C52.3063 72.7683 52.7529 73.1258 53.3641 73.1258C53.7059 73.1258 54.0728 72.9726 54.335 72.7082L54.982 73.2459C54.5444 73.7396 53.9771 73.9439 53.3829 73.9439C52.4719 73.9439 51.415 73.5183 51.415 71.7458C51.415 70.0674 52.3851 69.5217 53.2424 69.5217C54.2214 69.5217 55.0679 70.2296 55.0679 71.3462V72.0603H52.3054H52.3063ZM54.1775 71.3453C54.1507 70.6875 53.7659 70.3381 53.2433 70.3381C52.7207 70.3381 52.3242 70.6875 52.3072 71.3453H54.1784H54.1775ZM53.373 67.7734H54.5444L53.3032 69.0172H52.5685L53.373 67.7734Z" fill="black"/>
<path d="M64.474 73.1956C64.0892 73.6293 63.5559 73.9457 62.8829 73.9457C61.861 73.9457 60.873 73.3148 60.873 71.7386C60.873 70.1624 61.861 69.5234 62.8829 69.5234C63.5568 69.5234 64.0892 69.838 64.474 70.2735L63.8181 70.8443C63.5997 70.579 63.2856 70.3918 62.9178 70.3918C62.1921 70.3918 61.7634 70.7932 61.7634 71.7386C61.7634 72.684 62.1921 73.0756 62.9178 73.0756C63.2847 73.0756 63.5997 72.8892 63.8181 72.6239L64.474 73.1947V73.1956Z" fill="black"/>
<path d="M66.1484 69.5745H67.0406V70.0342H67.0576C67.3377 69.6937 67.7395 69.5234 68.212 69.5234C68.5709 69.5234 68.868 69.6507 69.1391 69.8559L68.4921 70.6068C68.2827 70.4527 68.1333 70.3926 67.906 70.3926C67.4693 70.3926 67.0415 70.6651 67.0415 71.2968V73.8955H66.1493V69.5745H66.1484Z" fill="black"/>
<path d="M70.6279 67.8281H71.5201V68.6973H70.6279V67.8281ZM70.6279 69.5746H71.5201V73.8956H70.6279V69.5746Z" fill="black"/>
<path d="M76.0752 73.5119H76.0573C75.8738 73.8103 75.5678 73.9465 74.9646 73.9465C73.9767 73.9465 73.4004 73.3757 73.4004 72.6257C73.4004 71.9348 73.889 71.3479 74.8429 71.3479H76.0752V70.8954C76.0752 70.4867 75.804 70.3407 75.166 70.3407C74.7024 70.3407 74.4841 70.4267 74.3275 70.674L73.6277 70.1543C73.9695 69.6937 74.459 69.5234 75.123 69.5234C76.2148 69.5234 76.9674 69.881 76.9674 70.9455V73.8955H76.0752V73.5119ZM76.0752 72.063H75.0085C74.4832 72.063 74.2389 72.2673 74.2389 72.5827C74.2389 72.873 74.476 73.1284 75.0792 73.1284C75.8228 73.1284 76.0761 73.0505 76.0761 72.3784V72.063H76.0752Z" fill="black"/>
<path d="M79.1758 69.5745H80.068V70.0342H80.085C80.3651 69.6937 80.766 69.5234 81.2394 69.5234C81.5973 69.5234 81.8953 69.6507 82.1656 69.8559L81.5195 70.6068C81.3101 70.4527 81.1615 70.3926 80.9333 70.3926C80.4957 70.3926 80.0689 70.6651 80.0689 71.2968V73.8955H79.1767V69.5745H79.1758Z" fill="black"/>
<path d="M87.9161 70.0772C88.1604 69.812 88.5711 69.5234 89.2611 69.5234C89.951 69.5234 90.3636 69.812 90.6079 70.0772C90.9488 70.4428 91.0884 70.8013 91.0884 71.7305C91.0884 72.6598 90.9488 73.0254 90.6079 73.3919C90.3636 73.6562 89.9519 73.9457 89.2611 73.9457C88.5703 73.9457 88.1604 73.6562 87.9161 73.3919C87.5751 73.0254 87.4355 72.6669 87.4355 71.7305C87.4355 70.7941 87.5751 70.4428 87.9161 70.0772ZM89.9779 70.7072C89.8472 70.5289 89.5671 70.3926 89.2611 70.3926C88.955 70.3926 88.675 70.5289 88.5452 70.7072C88.3787 70.9375 88.3259 71.1095 88.3259 71.7305C88.3259 72.3515 88.3787 72.5307 88.5452 72.761C88.675 72.9402 88.9559 73.0764 89.2611 73.0764C89.5662 73.0764 89.8472 72.9402 89.9779 72.761C90.1443 72.5316 90.1962 72.3605 90.1962 71.7395C90.1962 71.1185 90.1443 70.9384 89.9779 70.7072Z" fill="black"/>
<path d="M93.0771 69.5736H93.9702V70.0253C94.2494 69.7269 94.6593 69.5234 95.1148 69.5234C95.6562 69.5234 96.0499 69.7609 96.3041 70.0853C96.5484 70.3926 96.6182 70.674 96.6182 71.7386C96.6182 72.8031 96.5484 73.0764 96.3041 73.3829C96.0499 73.7082 95.6562 73.9457 95.1148 73.9457C94.6602 73.9457 94.3022 73.7413 93.9702 73.4349V75.642H93.0771V69.5745V69.5736ZM95.726 71.7377C95.726 71.0647 95.683 70.3918 94.8427 70.3918C94.0024 70.3918 93.9702 71.1077 93.9702 71.7377C93.9702 72.3676 94.0123 73.0756 94.8427 73.0756C95.6732 73.0756 95.726 72.4026 95.726 71.7377Z" fill="black"/>
<path d="M98.9317 70.0772C99.1769 69.812 99.5886 69.5234 100.279 69.5234C100.968 69.5234 101.379 69.812 101.624 70.0772C101.965 70.4428 102.105 70.8013 102.105 71.7305C102.105 72.6598 101.965 73.0254 101.624 73.3919C101.379 73.6562 100.968 73.9457 100.279 73.9457C99.5886 73.9457 99.1769 73.6562 98.9317 73.3919C98.5908 73.0254 98.4512 72.6669 98.4512 71.7305C98.4512 70.7941 98.5908 70.4428 98.9317 70.0772ZM100.994 70.7072C100.864 70.5289 100.584 70.3926 100.279 70.3926C99.9734 70.3926 99.6924 70.5289 99.5617 70.7072C99.3953 70.9375 99.3434 71.1095 99.3434 71.7305C99.3434 72.3515 99.3953 72.5307 99.5617 72.761C99.6924 72.9402 99.9725 73.0764 100.279 73.0764C100.585 73.0764 100.864 72.9402 100.994 72.761C101.162 72.5316 101.214 72.3605 101.214 71.7395C101.214 71.1185 101.162 70.9384 100.994 70.7072Z" fill="black"/>
<path d="M104.094 69.5745H104.985V70.0342H105.003C105.282 69.6937 105.684 69.5234 106.155 69.5234C106.514 69.5234 106.811 69.6507 107.081 69.8559L106.435 70.6068C106.226 70.4527 106.077 70.3926 105.849 70.3926C105.413 70.3926 104.984 70.6651 104.984 71.2968V73.8955H104.093V69.5745H104.094Z" fill="black"/>
<path d="M108.601 68.2617H109.491V69.5745H110.137V70.2385H109.491V72.7529C109.491 72.9913 109.587 73.0755 109.805 73.0755H110.138V73.8946H109.676C109.054 73.8946 108.601 73.5119 108.601 72.83V70.2394H108.153V69.5754H108.601V68.2626V68.2617Z" fill="black"/>
<path d="M112.027 69.5742H112.92V72.1469C112.92 72.7347 113.295 73.0753 113.803 73.0753C114.31 73.0753 114.678 72.7347 114.678 72.1469V69.5742H115.568V73.8943H114.678V73.4337H114.659C114.381 73.7751 113.978 73.9454 113.515 73.9454C112.817 73.9454 112.028 73.4256 112.028 72.4462V69.5751L112.027 69.5742Z" fill="black"/>
<path d="M117.775 69.5745H118.667V70.0342H118.685C118.965 69.6937 119.366 69.5234 119.838 69.5234C120.528 69.5234 121.317 70.0432 121.317 71.0226V73.8946H120.425V71.3201C120.425 70.7332 120.048 70.3918 119.55 70.3918C119.051 70.3918 118.667 70.7332 118.667 71.3201V73.8946H117.774V69.5736L117.775 69.5745Z" fill="black"/>
<path d="M123.552 67.8281H124.443V68.6973H123.552V67.8281ZM123.552 69.5746H124.443V73.8956H123.552V69.5746Z" fill="black"/>
<path d="M129.324 73.4448C129.045 73.7423 128.633 73.9466 128.179 73.9466C127.638 73.9466 127.244 73.7083 126.992 73.383C126.746 73.0765 126.676 72.7961 126.676 71.7306C126.676 70.6652 126.746 70.3927 126.992 70.0863C127.244 69.7619 127.638 69.5235 128.179 69.5235C128.633 69.5235 128.992 69.7278 129.324 70.0343V67.8281H130.215V73.8956H129.324V73.4439V73.4448ZM127.568 71.7315C127.568 72.4054 127.611 73.0774 128.45 73.0774C129.29 73.0774 129.324 72.3624 129.324 71.7315C129.324 71.1007 129.281 70.3936 128.45 70.3936C127.62 70.3936 127.568 71.0675 127.568 71.7315Z" fill="black"/>
<path d="M134.592 73.5119H134.574C134.391 73.8103 134.085 73.9465 133.481 73.9465C132.494 73.9465 131.917 73.3757 131.917 72.6257C131.917 71.9348 132.406 71.3479 133.357 71.3479H134.591V70.8954C134.591 70.4867 134.32 70.3407 133.682 70.3407C133.22 70.3407 133.001 70.4267 132.842 70.674L132.143 70.1543C132.485 69.6937 132.974 69.5234 133.637 69.5234C134.732 69.5234 135.482 69.881 135.482 70.9455V73.8955H134.592V73.5119ZM134.592 72.063H133.525C133.001 72.063 132.756 72.2673 132.756 72.5827C132.756 72.873 132.991 73.1284 133.594 73.1284C134.338 73.1284 134.592 73.0505 134.592 72.3784V72.063Z" fill="black"/>
<path d="M140.338 73.4448C140.058 73.7423 139.648 73.9466 139.194 73.9466C138.652 73.9466 138.259 73.7083 138.005 73.383C137.759 73.0765 137.69 72.7961 137.69 71.7306C137.69 70.6652 137.759 70.3927 138.005 70.0863C138.259 69.7619 138.652 69.5235 139.194 69.5235C139.648 69.5235 140.008 69.7278 140.338 70.0343V67.8281H141.231V73.8956H140.338V73.4439V73.4448ZM138.581 71.7315C138.581 72.4054 138.626 73.0774 139.464 73.0774C140.303 73.0774 140.338 72.3624 140.338 71.7315C140.338 71.1007 140.295 70.3936 139.464 70.3936C138.633 70.3936 138.581 71.0675 138.581 71.7315Z" fill="black"/>
<path d="M143.953 72.0621C143.953 72.77 144.4 73.1275 145.011 73.1275C145.353 73.1275 145.719 72.9734 145.982 72.7099L146.628 73.2467C146.191 73.7414 145.623 73.9457 145.028 73.9457C144.119 73.9457 143.062 73.52 143.062 71.7475C143.062 70.0692 144.031 69.5234 144.888 69.5234C145.867 69.5234 146.716 70.2305 146.716 71.347V72.0621H143.953ZM145.822 71.347C145.797 70.6902 145.413 70.3398 144.888 70.3398C144.363 70.3398 143.97 70.6902 143.953 71.347H145.823H145.822Z" fill="black"/>
<path d="M148.836 72.5746C149.22 72.9402 149.641 73.1284 150.234 73.1284C150.742 73.1284 151.109 72.9402 151.109 72.5746C151.109 72.2673 150.872 72.1732 150.567 72.1481L149.78 72.0791C149.046 72.0208 148.505 71.5943 148.505 70.8523C148.505 69.976 149.22 69.5234 150.156 69.5234C150.933 69.5234 151.458 69.7537 151.895 70.1113L151.344 70.743C150.995 70.5029 150.636 70.3407 150.156 70.3407C149.586 70.3407 149.395 70.562 149.395 70.8613C149.395 71.0495 149.535 71.2359 149.981 71.2708L150.715 71.3219C151.633 71.381 152 71.9268 152 72.6167C152 73.46 151.195 73.9465 150.164 73.9465C149.448 73.9465 148.782 73.6894 148.215 73.1705L148.836 72.5746Z" fill="black"/>
</g>
</svg>
