<svg width="164" height="112" viewBox="0 0 164 112" fill="none" xmlns="http://www.w3.org/2000/svg">
<g opacity="0.7">
<path d="M38.9506 42.5781V69.5619H12V42.5781H38.9498H38.9506ZM37.0832 44.4385H13.8666V50.8357C22.5897 47.7719 32.1805 51.6563 36.2503 59.8661L37.0832 61.769V44.4385ZM14.3336 52.8127H16.025C16.5499 52.8127 17.9201 53.2103 18.479 53.3902C19.5783 53.7445 20.5618 54.3566 21.6224 54.792C22.3133 53.1925 21.8185 51.6069 19.8709 51.6424C18.3501 51.6702 16.0682 52.0493 14.654 52.6105C14.5289 52.6599 14.3066 52.6429 14.3329 52.8127H14.3336ZM27.2817 59.3257C27.9772 57.7347 28.7561 55.2876 27.5681 53.7499C26.7212 52.6537 23.0583 52.0014 21.6834 51.7667C21.5923 51.8509 22.1559 52.4908 22.2362 52.6684C22.6785 53.6511 22.4044 54.3582 22.2856 55.3509L27.2817 59.3257ZM13.8666 53.2782V57.2909C14.6231 58.2095 15.0654 59.4739 15.7494 60.415C15.8266 60.5215 15.8382 60.6095 16.0057 60.5933C16.7483 60.5207 21.1145 56.3954 21.0983 55.6589C21.0921 55.3679 20.1858 54.9256 19.8956 54.7696C18.0931 53.8016 15.9262 53.1817 13.8674 53.2774L13.8666 53.2782ZM28.3338 54.0934C29.0101 56.1237 28.7113 58.1786 27.768 60.066C29.3212 61.7921 30.6296 63.7058 31.7745 65.7214C31.9628 65.7245 32.9841 63.5692 33.1192 63.2257C33.4241 62.4498 34.0741 60.391 33.9097 59.6422C33.7476 58.9066 31.6031 56.5367 30.9616 55.95C30.7192 55.7284 28.5006 53.9159 28.3338 54.0926V54.0934ZM21.8695 56.0773C20.5502 58.3353 18.6103 60.0691 16.4349 61.4872L19.7697 66.8786C21.634 65.7886 23.4582 64.3133 24.8925 62.7015C25.1534 62.4089 26.5151 60.7415 26.5622 60.5192C26.6124 60.2806 26.4719 60.1386 26.3484 59.9665C25.9539 59.4191 24.6863 58.2465 24.1344 57.7548C23.8441 57.4962 22.0918 56.0241 21.8687 56.0773H21.8695ZM13.8666 61.769C14.1684 61.7991 15.1457 61.2649 15.1504 61.0179L13.8666 58.6287V61.769ZM36.1499 67.5841C36.1677 65.0714 35.476 62.5911 34.3412 60.3717C34.1343 62.1534 33.7244 63.6942 33.0196 65.3362C32.8868 65.6465 32.3573 66.447 32.3195 66.6238C32.3009 66.7103 32.5989 67.5834 32.6499 67.5834H36.1499V67.5841ZM20.7501 67.5841H30.4915C30.8543 67.5841 30.9122 66.8994 30.8087 66.569C30.6103 65.9345 29.6053 64.3875 29.1984 63.7552C28.5986 62.8242 27.9178 61.9365 27.2245 61.0727C25.6142 63.7429 23.2629 65.7924 20.7494 67.5834L20.7501 67.5841ZM18.767 67.5841L18.7014 67.1256L15.7332 62.0515C15.4854 61.8956 14.2649 62.8111 13.8666 62.8158V67.5841H18.767Z" fill="black"/>
<path d="M127.15 53.9766C127.057 54.361 126.736 54.5054 127.098 54.9014L131.35 59.2104V54.3255C131.35 54.2977 130.886 54.2799 131 53.9766H133.45C133.503 54.3216 133.137 54.1865 133.091 54.4961C132.787 56.5402 133.339 59.3517 133.098 61.4815L133.451 62.0018H130.884C130.881 61.8243 131.018 61.6606 131.004 61.4815C130.975 61.1465 126.924 57.1941 126.334 56.6522V61.4792C126.334 61.7563 126.807 61.717 126.684 62.0026H124.35L124.703 61.4823C124.462 59.3525 125.014 56.541 124.71 54.4969C124.664 54.1873 124.298 54.3224 124.351 53.9773H127.151L127.15 53.9766Z" fill="black"/>
<path d="M77.8592 53.9759C79.4055 54.1388 80.4067 55.0899 80.2508 56.7094C80.128 57.9878 79.2163 58.4008 78.1526 58.8022L80.6005 62.0012H77.8006C77.6562 61.7102 78.0298 61.7974 78.0406 61.7071C78.0615 61.5311 76.2868 58.7451 76.1084 58.7451H74.0666V61.5944C74.0666 61.714 74.5684 61.7163 74.4163 62.0012H71.9661C71.9831 61.7372 72.1645 61.67 72.2062 61.3682C72.383 60.0906 72.3583 55.8086 72.2085 54.4916C72.1823 54.2585 71.8465 54.3449 71.9661 53.9759C73.8466 54.1211 76.0119 53.7814 77.8577 53.9759H77.8592ZM74.0674 57.4652H77.3922C78.1765 57.4652 78.7532 56.633 78.3687 55.9097C78.2954 55.7723 77.8538 55.3716 77.7427 55.3716H74.0674V57.4652Z" fill="black"/>
<path d="M76.8672 44.2031C77.0525 44.5366 76.5175 44.6563 76.5175 44.7265V49.5536H80.4838C80.5101 49.5536 80.5595 49.058 80.8335 49.3204C80.9563 49.4378 80.4885 51.6842 81.5105 50.0538C82.416 48.6087 82.9927 46.6124 83.9329 45.1356C84.2379 44.884 83.3856 44.2031 83.8094 44.2031H86.2009C86.2395 44.5706 85.8211 44.7682 86.018 45.1349C86.9706 46.6657 87.6653 48.7175 88.6704 50.1734C88.8889 50.4899 89.2208 50.5062 89.2347 50.8327H86.5514C86.502 50.4243 86.9335 50.6922 86.9034 50.2028C86.8949 50.0669 86.5321 49.3189 86.4364 49.261C86.2573 49.1521 83.4813 49.1545 83.3895 49.2764C83.3401 49.3413 82.9317 50.2591 82.9325 50.3163C82.9356 50.6497 83.3841 50.4714 83.2845 50.8327C83.1417 50.9423 81.2681 50.7223 80.8984 50.8257C80.7363 50.8713 81.0057 51.3136 80.5425 51.1847C80.4985 51.1724 80.5062 50.8898 79.9612 50.8327C78.2583 50.6551 76.2697 50.9662 74.5351 50.8327C74.4355 50.517 74.7289 50.6582 74.8061 50.4614C74.9435 50.1109 74.979 44.9118 74.8231 44.6655C74.7374 44.5304 74.4139 44.6123 74.5344 44.2031H76.868H76.8672ZM85.8505 48.2737C85.7177 47.6005 85.2298 46.8424 84.8022 46.2967C84.6416 46.9922 84.0526 47.5681 83.9839 48.2737H85.8505Z" fill="black"/>
<path d="M47.5831 53.9773C47.5275 54.3332 47.184 54.4258 47.5321 54.784L51.8999 59.3278V54.5007C51.8999 54.4251 51.4452 54.1958 51.5502 53.9773H53.8838C53.7611 54.3865 53.575 54.3533 53.5264 54.8427C53.4484 55.6401 53.4353 61.1812 53.6121 61.6313C53.6893 61.8281 53.9818 61.6853 53.8838 62.0034H51.4336C51.544 61.6583 51.6003 61.4113 51.3163 61.1311L46.8837 56.6529V61.5958C46.8837 61.7154 47.3855 61.7177 47.2334 62.0026H44.8998C44.8017 61.6853 45.0943 61.8281 45.1715 61.6305C45.3483 61.1805 45.3351 55.6394 45.2572 54.8419C45.2093 54.3525 45.0225 54.3857 44.8998 53.9766H47.5831V53.9773Z" fill="black"/>
<path d="M84.1004 53.9766C83.9962 54.3703 83.7098 54.466 84.1019 54.8481L88.4172 59.2104V54.3255C88.4172 54.2977 87.954 54.2799 88.0675 53.9766H90.4011C90.2591 54.3911 90.09 54.4776 90.0452 54.96C89.9696 55.7706 89.948 61.1681 90.1294 61.6305C90.2066 61.8274 90.4991 61.6846 90.4011 62.0026H87.9509C87.9856 61.7401 88.1833 61.4738 87.9586 61.2407L83.401 56.6522V61.595C83.401 61.7147 83.9028 61.717 83.7507 62.0018H81.4171C81.3105 61.6838 81.6293 61.7888 81.7096 61.6591C82.0663 61.084 81.5537 55.8015 81.7729 54.7269L81.4171 53.9773H84.1004V53.9766Z" fill="black"/>
<path d="M117.909 53.8936C121.411 53.5154 124.451 55.9872 123.038 59.5884C121.648 63.134 115.609 63.0552 114.342 59.4741C113.398 56.8062 115.126 54.1939 117.909 53.8929V53.8936ZM118.136 55.2832C114.926 55.795 115.305 60.9084 118.796 60.8258C122.687 60.7332 122.37 54.6085 118.136 55.2832Z" fill="black"/>
<path d="M70.8003 53.6281V55.7217C70.4653 55.9069 70.3456 55.3727 70.2754 55.3727H65.2005V57.2339H68.5253C68.601 57.2339 68.8318 56.7808 69.0503 56.885V58.862C68.831 58.9662 68.601 58.5131 68.5253 58.5131H65.2005V60.6066H70.5085C70.6289 60.6066 70.6305 60.1064 70.9169 60.2577V62.3512C70.6976 62.4555 70.4676 62.0023 70.3919 62.0023H62.9835C62.8769 61.6843 63.1958 61.7892 63.276 61.6596C63.6327 61.0845 63.1201 55.802 63.3393 54.7274L62.9835 53.9778H70.2754C70.3456 53.9778 70.466 53.4436 70.8003 53.6289V53.6281Z" fill="black"/>
<path d="M48.9839 42.4601V44.5537C48.6489 44.739 48.5292 44.2048 48.459 44.2048H43.3841V45.9494H46.8842C46.8965 45.9494 46.8656 45.7387 46.9413 45.7139C46.9876 45.6985 47.2339 45.7024 47.2339 45.717V47.694C46.8988 47.8793 46.7792 47.3451 46.7089 47.3451H43.3841V49.5552H48.459C48.7353 49.5552 48.8141 49.0017 49.1005 49.0897V51.2998C48.8148 51.4542 48.7631 50.8343 48.5755 50.8343H41.1671C41.0605 50.5163 41.3793 50.6213 41.4596 50.4916C41.8163 49.9165 41.3037 44.634 41.5229 43.5594L41.1671 42.8098H48.459C48.5292 42.8098 48.6496 42.2757 48.9839 42.4609V42.4601Z" fill="black"/>
<path d="M140.334 53.9766C140.233 54.4729 139.842 54.1356 140.039 54.7925C140.639 56.7911 142.477 59.2375 143.228 61.2677L143.834 62.0018H140.918C140.868 61.5935 141.3 61.8621 141.27 61.3719C141.265 61.2947 140.756 60.1754 140.697 60.0966C140.584 59.9477 137.129 59.9446 136.97 60.0434C136.908 60.082 136.372 61.2909 136.366 61.3719C136.336 61.8613 136.768 61.5927 136.718 62.0018H134.035C133.941 61.629 134.368 61.8011 134.509 61.5711L137.717 54.9091C137.954 54.4575 137.448 54.361 137.418 53.9766H140.335H140.334ZM137.533 58.8615H139.984C139.875 58.5381 139.013 56.2299 138.874 56.1859C138.676 56.1226 138.554 56.5796 138.485 56.727C138.156 57.4303 137.868 58.1606 137.534 58.8615H137.533Z" fill="black"/>
<path d="M97.2838 53.974C97.4852 54.1809 97.0545 54.3731 97.0491 54.4001C97.0066 54.6178 97.0738 54.7907 97.1417 54.9891C97.3548 55.6129 100.192 61.3663 100.467 61.6171C100.648 61.7831 100.988 61.6503 100.9 61.9993H97.9839C97.8851 61.6372 98.3328 61.8163 98.3359 61.482C98.3375 61.3647 97.7168 60.128 97.635 60.0786C97.4914 59.9914 94.6599 59.9721 94.3017 60.0153C93.8431 60.0701 93.3151 61.1949 93.4448 61.5793C93.5189 61.7986 93.891 61.6696 93.7829 61.9993H91.0996C91.1019 61.6851 91.3821 61.699 91.5898 61.3825C92.3695 60.1937 94.1743 56.4836 94.6545 55.1342C94.7193 54.9513 94.8637 54.7112 94.8158 54.5198C94.7649 54.3167 94.4237 54.245 94.4831 53.9732C94.8513 54.0489 97.1857 53.8729 97.283 53.9732L97.2838 53.974ZM97.0506 58.8589C96.7581 57.982 96.3659 56.9167 95.7684 56.1841L94.6004 58.8589H97.0506Z" fill="black"/>
<path d="M109.65 55.0239C109.728 55.0918 108.633 56.7214 108.54 56.767C108.311 56.8804 108.391 56.4018 108.197 56.181C107.662 55.5735 106.064 55.2138 105.271 55.2516C101.442 55.433 101.571 60.3728 104.808 60.7232C105.798 60.8305 107.523 60.6206 108.202 59.8015C108.346 59.6286 108.324 59.2449 108.54 59.3283C108.632 59.3638 109.732 60.8992 109.65 60.9548C108.906 60.8406 108.403 61.401 107.747 61.6751C105.081 62.7867 101.06 62.085 100.582 58.774C99.9871 54.668 104.152 52.9666 107.549 54.2704C108.272 54.5476 108.906 55.2485 109.65 55.0246L109.65 55.0239Z" fill="black"/>
<path d="M69.1438 44.1217C70.8807 43.9457 73.0847 44.73 73.4313 46.6406C73.9886 49.7122 71.8511 51.2013 68.9879 50.9535C64.773 50.5892 64.5144 44.5911 69.143 44.1217H69.1438ZM69.4951 45.3931C66.5184 45.5545 66.7268 50.2132 70.2686 49.6628C70.883 49.5671 71.7476 48.7033 71.8434 48.0927C72.0896 46.5241 71.1169 45.3051 69.4951 45.3931Z" fill="black"/>
<path d="M56.4499 44.7881C56.3464 45.0213 55.8254 46.3452 55.7489 46.4154C55.515 46.63 55.478 46.0688 55.3182 45.943C55.0326 45.7176 54.0869 45.4065 53.7079 45.3702C53.1598 45.3177 50.9489 45.4366 51.6043 46.4208C52.0582 47.1032 55.9342 46.1051 56.5726 48.3291C57.2651 50.7399 53.9981 51.1243 52.3214 50.9398C51.5395 50.8534 50.7397 50.2767 50.0349 50.4867C49.862 50.2675 50.6038 49.0841 50.6185 48.7421C51.2006 49.751 54.2158 50.1617 54.8836 49.3319C55.2194 48.9142 55.0441 48.6163 54.5655 48.4696C53.1196 48.0273 49.9824 48.7568 50.0303 46.2464C50.075 43.9451 53.3057 43.9081 54.9083 44.4052C55.4703 44.5797 55.8609 45.0498 56.4499 44.7874V44.7881Z" fill="black"/>
<path d="M64.9665 45.138C65.0382 45.1951 64.1906 46.482 64.0856 46.5275C63.7259 46.6811 63.8386 46.245 63.5646 46.0126C62.1581 44.8215 58.9575 45.3927 59.0286 47.6283C59.0965 49.7705 62.3611 50.2985 63.6124 49.0796C63.7707 48.926 63.9313 48.3609 64.1489 48.5122C64.2192 48.5616 65.0328 49.9681 64.9672 50.0229C64.3018 49.938 63.7992 50.4491 63.2164 50.6621C60.9121 51.5043 57.7062 50.7818 57.3974 47.9765C57.0323 44.6594 60.5424 43.4482 63.2481 44.4687C63.844 44.6933 64.3342 45.1889 64.9672 45.1395L64.9665 45.138Z" fill="black"/>
<path d="M54.4668 53.6271C54.7856 53.5205 54.6806 53.8386 54.8111 53.9189C55.3901 54.2755 60.7899 53.7652 61.8784 53.9783L62.4002 53.6271V55.7206C62.1146 55.8719 62.1123 55.3717 61.9918 55.3717H59.3672V61.5944C59.3672 61.7141 59.869 61.7164 59.7169 62.0013H57.1501C56.995 61.7164 57.6172 61.6647 57.6172 61.4779V55.3717H54.8752C54.7547 55.3717 54.7532 55.8719 54.4668 55.7206V53.6271Z" fill="black"/>
<path d="M146.867 53.9766C146.956 54.2622 146.4 54.3409 146.4 54.6165V60.6061H151.592C151.712 60.6061 151.714 60.1059 152 60.2572V62.3508C151.781 62.455 151.551 62.0018 151.475 62.0018H144.3C144.193 61.6838 144.512 61.7888 144.592 61.6591C144.949 61.084 144.437 55.8015 144.656 54.7269L144.3 53.9773H146.867L146.867 53.9766Z" fill="black"/>
<path d="M113.15 53.9766C113.203 54.3216 112.837 54.1865 112.791 54.4961C112.487 56.5402 113.039 59.3517 112.798 61.4815L113.151 62.0018H110.584C110.478 61.6838 110.796 61.7888 110.877 61.6591C111.233 61.084 110.721 55.8015 110.94 54.7269L110.584 53.9773H113.151L113.15 53.9766Z" fill="black"/>
<path d="M43.734 53.9766L43.3751 54.4961C43.6105 56.6221 43.0941 59.3139 43.3782 61.3681C43.4198 61.6699 43.6005 61.7378 43.6182 62.0011H41.168C41.0615 61.683 41.3803 61.788 41.4606 61.6583C41.8173 61.0832 41.3047 55.8007 41.5239 54.7261L41.168 53.9766H43.7348H43.734Z" fill="black"/>
<path d="M107.9 69.3286C107.862 69.2985 108.194 68.6725 107.759 68.4239C107.664 68.3699 106.04 68.3629 105.878 68.4162C105.706 68.4725 105.392 69.1109 105.463 69.2028C105.504 69.2545 105.73 69.1241 105.683 69.3271H104.168L104.652 68.7072C104.937 67.8326 105.811 66.8615 106.065 66.0347C106.14 65.79 106.024 65.3901 106.093 65.3731C106.461 65.2813 107.137 65.4403 107.551 65.3747C107.517 65.59 107.416 65.7205 107.48 65.9567C107.547 66.203 108.97 68.701 109.197 69.026C109.316 69.1966 109.542 69.1472 109.535 69.3286C109.274 69.2777 107.988 69.3973 107.901 69.3286H107.9ZM107.317 67.8164C107.425 67.7145 106.878 66.46 106.619 66.6538C106.569 66.6916 106.216 67.6427 106.151 67.8156H107.317V67.8164Z" fill="black"/>
<path d="M151.476 66.072C151.517 66.0704 151.724 65.8404 151.768 66.0141L151.767 66.8856C151.641 66.9304 151.512 66.7698 151.476 66.7698H149.317V67.3519L150.952 67.2932L150.95 68.1647C150.421 67.9941 149.866 68.0528 149.317 68.0482V68.7468H151.65C151.563 68.5453 151.786 68.4025 151.883 68.5144C151.934 68.5746 151.848 69.3698 151.883 69.5604C151.757 69.6052 151.628 69.4446 151.592 69.4446H148.325C148.03 69.4446 148.376 68.9861 148.389 68.8116C148.457 67.9764 148.469 66.8254 148.149 66.072C149.254 66.0403 150.37 66.1152 151.474 66.072H151.476Z" fill="black"/>
<path d="M121.55 67.9323C121.577 68.3977 121.455 68.8933 121.667 69.3272H120.501C120.698 68.3406 120.687 67.1302 120.499 66.1313L121.667 66.0726L121.55 67.351H123.417L123.3 66.0726C123.627 66.0911 123.967 66.0433 124.294 66.0718C124.992 66.132 124.362 66.2756 124.34 66.4702C124.285 66.9611 124.282 68.3283 124.343 68.8123C124.376 69.0655 124.462 69.1342 124.583 69.3279H123.3C123.512 68.8949 123.39 68.3985 123.417 67.933H121.55V67.9323Z" fill="black"/>
<path d="M116.418 68.0481C116.437 68.4765 116.333 68.9289 116.534 69.3264H115.251C115.372 69.1327 115.459 69.064 115.491 68.8108C115.551 68.3391 115.551 66.9434 115.494 66.4686C115.461 66.1907 115.165 66.4192 115.251 66.0703H117.876C117.946 66.0703 118.574 66.2633 118.678 66.3173C119.527 66.7574 119.044 68.0473 118.225 68.0473H116.417L116.418 68.0481ZM117.992 66.7689C117.62 66.6547 116.744 66.8523 116.301 66.7689C115.803 67.7848 118.047 67.5046 118.157 67.3402C118.239 67.2151 118.151 66.8176 117.993 66.7689H117.992Z" fill="black"/>
<path d="M127.151 68.5136C127.086 68.5538 126.826 69.186 127.034 69.3265L125.751 69.2701C126.174 68.6904 127.182 67.2986 127.337 66.6517C127.394 66.4124 127.308 66.2904 127.268 66.0719C127.649 66.1329 128.271 65.9847 128.609 66.0704C128.728 66.1005 128.53 66.4031 128.607 66.6432C128.728 67.0183 129.561 68.2759 129.832 68.6912C129.969 68.9019 130.108 69.1049 130.301 69.2701L128.786 69.3265C128.732 69.1242 129.025 69.2755 129.024 69.1505C129.024 69.1165 128.819 68.5129 128.785 68.5129C128.525 68.5129 127.221 68.4696 127.151 68.5129L127.151 68.5136ZM128.082 67.2345C127.851 67.0623 127.425 67.9787 127.501 68.0474H128.434C128.296 67.9231 128.118 67.2607 128.082 67.2345Z" fill="black"/>
<path d="M132.166 66.0711C132.423 66.2765 131.888 66.2525 131.942 66.4641C132.063 66.9496 132.679 67.6035 132.751 68.1639C132.904 68.2782 134.004 66.4432 133.567 66.0711H134.966L133.378 68.861L133.45 69.3257H132.167C132.235 69.152 132.301 69.0625 132.239 68.861C132.131 68.5082 131.142 66.7952 130.885 66.383C130.825 66.2865 130.451 66.3035 130.709 66.0704C130.951 66.119 132.085 66.0063 132.166 66.0719V66.0711Z" fill="black"/>
<path d="M143.717 66.3635C143.711 66.3134 143.557 66.2037 143.6 66.0733C143.817 66.1126 144.817 66.0161 144.883 66.0733C144.995 66.1698 144.852 66.3929 144.65 66.3056V68.7481H146.75C146.663 68.5466 146.886 68.4038 146.982 68.5157C147.034 68.576 146.947 69.3711 146.982 69.561C146.775 69.6482 146.626 69.3286 146.575 69.3286H143.6C143.569 69.2437 143.716 69.1897 143.716 69.1542C143.716 68.3004 143.811 67.1725 143.716 66.3628L143.717 66.3635Z" fill="black"/>
<path d="M110.817 66.3635C110.81 66.3134 110.657 66.2037 110.7 66.0733C110.916 66.1126 111.917 66.0161 111.982 66.0733C112.095 66.1698 111.951 66.3929 111.75 66.3056V68.7481H113.792C113.841 68.7481 113.962 68.5034 114.082 68.5157V69.5617C113.874 69.649 113.726 69.3294 113.675 69.3294H110.7C110.669 69.2445 110.817 69.1904 110.817 69.1549C110.817 68.3011 110.912 67.1733 110.817 66.3635Z" fill="black"/>
<path d="M139.05 66.3635C139.044 66.3134 138.89 66.2037 138.933 66.0733C139.15 66.1126 140.15 66.0161 140.216 66.0733C140.328 66.1698 140.185 66.3929 139.983 66.3056V68.7481H142.025C142.075 68.7481 142.195 68.5034 142.315 68.5157V69.5617C142.108 69.649 141.96 69.3294 141.909 69.3294H138.933C138.903 69.2445 139.05 69.1904 139.05 69.1549C139.05 68.3011 139.145 67.1733 139.05 66.3635Z" fill="black"/>
<path d="M137.417 66.0739C137.623 66.2368 137.196 66.2893 137.174 66.4715C137.116 66.9462 137.116 68.3419 137.177 68.8136C137.209 69.0668 137.296 69.1355 137.417 69.3293H136.134C136.324 69.0923 136.346 68.9911 136.375 68.6986C136.452 67.9127 136.439 66.7803 136.135 66.0747C136.357 66.1179 137.339 66.0129 137.417 66.0747V66.0739Z" fill="black"/>
</g>
</svg>
